<svg width="611" height="604" viewBox="0 0 611 604" fill="none" xmlns="http://www.w3.org/2000/svg">
<rect width="611" height="604" rx="302" fill="white"/>
<path d="M304.753 396.445C441.583 396.445 552.505 353.975 552.505 301.586C552.505 249.196 441.583 206.726 304.753 206.726C167.923 206.726 57 249.196 57 301.586C57 353.975 167.923 396.445 304.753 396.445Z" stroke="#61DAFB" stroke-width="23"/>
<path d="M222.83 349.015C291.245 467.843 383.384 542.936 428.629 516.742C473.874 490.547 455.091 372.983 386.676 254.156C318.261 135.329 226.121 60.235 180.876 86.4296C135.632 112.624 154.415 230.188 222.83 349.015Z" stroke="#61DAFB" stroke-width="23"/>
<path d="M222.83 254.156C154.415 372.983 135.632 490.547 180.876 516.741C226.121 542.936 318.261 467.842 386.676 349.015C455.091 230.188 473.874 112.624 428.629 86.4296C383.384 60.2349 291.245 135.329 222.83 254.156Z" stroke="#61DAFB" stroke-width="23"/>
<path d="M271.045 302.927C247.22 303.686 240.139 320.752 238.516 329.998C240.631 326.571 247.294 319.051 257.104 319.051C268.537 319.051 277.24 331.847 282.551 335.841C289.003 340.693 301.968 347.101 318.988 341.906C332.56 337.764 338.854 323.316 340.231 316.462C333.666 325.412 323.709 330.787 311.391 324.45C302.909 320.086 296.565 302.113 271.045 302.927Z" fill="#61DAFB"/>
<path d="M301.802 259.362C277.978 260.121 270.897 277.187 269.274 286.433C271.389 283.005 278.052 275.486 287.862 275.486C299.295 275.486 307.998 288.282 313.309 292.276C319.761 297.128 332.726 303.536 349.746 298.341C363.318 294.199 369.612 279.751 370.989 272.897C364.424 281.847 354.467 287.222 342.149 280.885C333.667 276.521 327.323 258.548 301.802 259.362Z" fill="#61DAFB"/>
</svg>
